<svg width="14" height="14" viewBox="0 0 14 14" fill="none" xmlns="http://www.w3.org/2000/svg">
<g id="SVGRepo_iconCarrier">
<path id="Vector" fill-rule="evenodd" clip-rule="evenodd" d="M3.16737 3.16737C3.39053 2.94421 3.75233 2.94421 3.97549 3.16737L7.00001 6.19189L10.0245 3.16737C10.2477 2.94421 10.6095 2.94421 10.8326 3.16737C11.0558 3.39053 11.0558 3.75233 10.8326 3.97549L7.80812 7.00001L10.8326 10.0245C11.0558 10.2477 11.0558 10.6095 10.8326 10.8326C10.6095 11.0558 10.2477 11.0558 10.0245 10.8326L7.00001 7.80812L3.97549 10.8326C3.75233 11.0558 3.39053 11.0558 3.16737 10.8326C2.94421 10.6095 2.94421 10.2477 3.16737 10.0245L6.19189 7.00001L3.16737 3.97549C2.94421 3.75233 2.94421 3.39053 3.16737 3.16737Z" fill="#0F1729" stroke="black" stroke-width="0.00024"/>
</g>
</svg>
