<svg width="25" height="24" viewBox="0 0 25 24" fill="none" xmlns="http://www.w3.org/2000/svg">
<g id="Frame" clip-path="url(#clip0_39_300)">
<path id="Vector" fill-rule="evenodd" clip-rule="evenodd" d="M12.52 0C19.134 0.011 24.5 5.383 24.5 12C24.5 18.623 19.124 24 12.5 24C5.877 24 0.5 18.623 0.5 12C0.5 5.383 5.867 0.011 12.481 0H12.52ZM16.214 16H8.787C9.426 20.266 11.029 23 12.5 23C13.972 23 15.575 20.266 16.214 16ZM22.749 16H17.226C16.8 18.985 15.905 21.402 14.741 22.771C18.41 22.011 21.412 19.421 22.749 16ZM7.775 16H2.251C3.589 19.421 6.591 22.011 10.26 22.771C9.096 21.402 8.201 18.985 7.775 16ZM7.652 9H1.916C1.585 10.166 1.175 12.389 1.916 15H7.652C7.464 13.186 7.437 11.075 7.652 9ZM16.343 9H8.658C8.463 10.8 8.433 12.927 8.658 15H16.343C16.539 13.189 16.567 11.07 16.343 9ZM23.085 9H17.349C17.411 9.592 17.657 12.019 17.349 15H23.085C23.826 12.388 23.416 10.165 23.085 9ZM10.26 1.229C6.591 1.989 3.589 4.579 2.251 8H7.775C8.201 5.015 9.096 2.597 10.26 1.229ZM16.214 8C15.575 3.734 13.972 1 12.5 1C11.029 1 9.426 3.734 8.787 8H16.214ZM14.741 1.229C15.905 2.597 16.8 5.015 17.226 8H22.749C21.412 4.579 18.41 1.989 14.741 1.229Z" fill="white"/>
</g>
<defs>
<clipPath id="clip0_39_300">
<rect width="24" height="24" fill="white" transform="translate(0.5)"/>
</clipPath>
</defs>
</svg>
